Anta-Regular-Release.ufo
<glyph name="numbersign" format="2">
  <advance width="1344"/>
  <unicode hex="0023"/>
  <outline>
    <contour>
      <point x="120" y="492" type="line"/>
      <point x="133" y="680" type="line"/>
      <point x="355" y="680" type="line"/>
      <point x="364" y="808" type="line"/>
      <point x="142" y="808" type="line"/>
      <point x="156" y="997" type="line"/>
      <point x="378" y="997" type="line"/>
      <point x="407" y="1422" type="line"/>
      <point x="596" y="1422" type="line"/>
      <point x="566" y="997" type="line"/>
      <point x="814" y="997" type="line"/>
      <point x="844" y="1422" type="line"/>
      <point x="1032" y="1422" type="line"/>
      <point x="1002" y="997" type="line"/>
      <point x="1224" y="997" type="line"/>
      <point x="1209" y="808" type="line"/>
      <point x="988" y="808" type="line"/>
      <point x="980" y="680" type="line"/>
      <point x="1200" y="680" type="line"/>
      <point x="1187" y="492" type="line"/>
      <point x="966" y="492" type="line"/>
      <point x="932" y="0" type="line"/>
      <point x="744" y="0" type="line"/>
      <point x="778" y="492" type="line"/>
      <point x="530" y="492" type="line"/>
      <point x="496" y="0" type="line"/>
      <point x="307" y="0" type="line"/>
      <point x="342" y="492" type="line"/>
    </contour>
    <contour>
      <point x="543" y="680" type="line"/>
      <point x="792" y="680" type="line"/>
      <point x="800" y="808" type="line"/>
      <point x="553" y="808" type="line"/>
    </contour>
  </outline>
</glyph>
<glyph name="quotesingle" format="2">
  <advance width="389"/>
  <unicode hex="0027"/>
  <outline>
    <contour>
      <point x="120" y="1422" type="line"/>
      <point x="269" y="1422" type="line"/>
      <point x="262" y="1146" type="line"/>
      <point x="127" y="1146" type="line"/>
    </contour>
  </outline>
</glyph>
<glyph name="parenleft" format="2">
  <advance width="677"/>
  <unicode hex="0028"/>
  <outline>
    <contour>
      <point x="140" y="-61" type="curve" smooth="yes"/>
      <point x="140" y="1300" type="line" smooth="yes"/>
      <point x="140" y="1554"/>
      <point x="254" y="1629"/>
      <point x="637" y="1629" type="curve"/>
      <point x="637" y="1419" type="line"/>
      <point x="404" y="1419"/>
      <point x="351" y="1397"/>
      <point x="351" y="1300" type="curve" smooth="yes"/>
      <point x="351" y="-61" type="line" smooth="yes"/>
      <point x="351" y="-157"/>
      <point x="406" y="-180"/>
      <point x="637" y="-180" type="curve"/>
      <point x="637" y="-390" type="line"/>
      <point x="253" y="-390"/>
      <point x="140" y="-315"/>
    </contour>
  </outline>
</glyph>
<glyph name="parenright" format="2">
  <advance width="677"/>
  <unicode hex="0029"/>
  <outline>
    <contour>
      <point x="40" y="-183" type="line"/>
      <point x="274" y="-183"/>
      <point x="329" y="-160"/>
      <point x="329" y="-63" type="curve" smooth="yes"/>
      <point x="329" y="1303" type="line" smooth="yes"/>
      <point x="329" y="1400"/>
      <point x="275" y="1422"/>
      <point x="40" y="1422" type="curve"/>
      <point x="40" y="1630" type="line"/>
      <point x="426" y="1630"/>
      <point x="537" y="1557"/>
      <point x="537" y="1303" type="curve" smooth="yes"/>
      <point x="537" y="-63" type="line" smooth="yes"/>
      <point x="537" y="-318"/>
      <point x="427" y="-390"/>
      <point x="40" y="-390" type="curve"/>
    </contour>
  </outline>
</glyph>
<glyph name="hyphen" format="2">
  <advance width="867"/>
  <unicode hex="002D"/>
  <outline>
    <contour>
      <point x="120" y="466" type="line"/>
      <point x="120" y="642" type="line"/>
      <point x="747" y="642" type="line"/>
      <point x="747" y="466" type="line"/>
    </contour>
  </outline>
</glyph>
<glyph name="one" format="2">
  <advance width="667"/>
  <unicode hex="0031"/>
  <outline>
    <contour>
      <point x="70" y="1212" type="line"/>
      <point x="70" y="1422" type="line"/>
      <point x="527" y="1422" type="line"/>
      <point x="527" y="0" type="line"/>
      <point x="317" y="0" type="line"/>
      <point x="317" y="1212" type="line"/>
    </contour>
  </outline>
</glyph>
<glyph name="four" format="2">
  <advance width="1310"/>
  <unicode hex="0034"/>
  <outline>
    <contour>
      <point x="120" y="932" type="curve" smooth="yes"/>
      <point x="120" y="1422" type="line"/>
      <point x="331" y="1422" type="line"/>
      <point x="331" y="934" type="line" smooth="yes"/>
      <point x="331" y="857"/>
      <point x="393" y="795"/>
      <point x="470" y="795" type="curve" smooth="yes"/>
      <point x="960" y="795" type="line"/>
      <point x="960" y="1422" type="line"/>
      <point x="1170" y="1422" type="line"/>
      <point x="1170" y="0" type="line"/>
      <point x="960" y="0" type="line"/>
      <point x="960" y="585" type="line"/>
      <point x="470" y="585" type="line" smooth="yes"/>
      <point x="277" y="585"/>
      <point x="120" y="740"/>
    </contour>
  </outline>
</glyph>
<glyph name="five" format="2">
  <advance width="1328"/>
  <unicode hex="0035"/>
  <outline>
    <contour>
      <point x="120" y="368" type="curve"/>
      <point x="331" y="372" type="line"/>
      <point x="331" y="274"/>
      <point x="386" y="211"/>
      <point x="470" y="211" type="curve" smooth="yes"/>
      <point x="858" y="211" type="line" smooth="yes"/>
      <point x="935" y="211"/>
      <point x="998" y="272"/>
      <point x="998" y="348" type="curve" smooth="yes"/>
      <point x="998" y="543" type="line" smooth="yes"/>
      <point x="998" y="628"/>
      <point x="936" y="697"/>
      <point x="859" y="697" type="curve" smooth="yes"/>
      <point x="128" y="697" type="line"/>
      <point x="128" y="1422" type="line"/>
      <point x="1156" y="1422" type="line"/>
      <point x="1156" y="1212" type="line"/>
      <point x="338" y="1212" type="line"/>
      <point x="338" y="902" type="line"/>
      <point x="860" y="902" type="line" smooth="yes"/>
      <point x="1052" y="902"/>
      <point x="1208" y="740"/>
      <point x="1208" y="540" type="curve" smooth="yes"/>
      <point x="1208" y="346" type="line" smooth="yes"/>
      <point x="1208" y="155"/>
      <point x="1051" y="0"/>
      <point x="858" y="0" type="curve" smooth="yes"/>
      <point x="470" y="0" type="line" smooth="yes"/>
      <point x="269" y="0"/>
      <point x="120" y="156"/>
    </contour>
  </outline>
</glyph>
<glyph name="seven" format="2">
  <advance width="1321"/>
  <unicode hex="0037"/>
  <outline>
    <contour>
      <point x="120" y="1212" type="line"/>
      <point x="120" y="1422" type="line"/>
      <point x="1201" y="1422" type="line"/>
      <point x="1201" y="1270" type="line"/>
      <point x="432" y="0" type="line"/>
      <point x="189" y="0" type="line"/>
      <point x="924" y="1212" type="line"/>
    </contour>
  </outline>
</glyph>
<glyph name="equal" format="2">
  <advance width="1233"/>
  <unicode hex="003D"/>
  <outline>
    <contour>
      <point x="110" y="290" type="line"/>
      <point x="110" y="466" type="line"/>
      <point x="1124" y="466" type="line"/>
      <point x="1124" y="290" type="line"/>
    </contour>
    <contour>
      <point x="110" y="642" type="line"/>
      <point x="110" y="817" type="line"/>
      <point x="1124" y="817" type="line"/>
      <point x="1124" y="642" type="line"/>
    </contour>
  </outline>
</glyph>
<glyph name="at" format="2">
  <advance width="1577"/>
  <unicode hex="0040"/>
  <outline>
    <contour>
      <point x="140" y="394" type="curve" smooth="yes"/>
      <point x="140" y="1029" type="line" smooth="yes"/>
      <point x="140" y="1246"/>
      <point x="317" y="1422"/>
      <point x="534" y="1422" type="curve" smooth="yes"/>
      <point x="1043" y="1422" type="line" smooth="yes"/>
      <point x="1260" y="1422"/>
      <point x="1437" y="1251"/>
      <point x="1437" y="1042" type="curve" smooth="yes"/>
      <point x="1437" y="730" type="line" smooth="yes"/>
      <point x="1437" y="494"/>
      <point x="1247" y="337"/>
      <point x="960" y="337" type="curve"/>
      <point x="960" y="914" type="line"/>
      <point x="737" y="914" type="line" smooth="yes"/>
      <point x="659" y="914"/>
      <point x="612" y="868"/>
      <point x="612" y="794" type="curve" smooth="yes"/>
      <point x="612" y="611" type="line" smooth="yes"/>
      <point x="612" y="550"/>
      <point x="662" y="508"/>
      <point x="733" y="508" type="curve" smooth="yes"/>
      <point x="840" y="508" type="line"/>
      <point x="840" y="337" type="line"/>
      <point x="737" y="337" type="line" smooth="yes"/>
      <point x="567" y="337"/>
      <point x="441" y="454"/>
      <point x="441" y="611" type="curve" smooth="yes"/>
      <point x="441" y="814" type="line" smooth="yes"/>
      <point x="441" y="967"/>
      <point x="568" y="1086"/>
      <point x="733" y="1086" type="curve" smooth="yes"/>
      <point x="1130" y="1086" type="line"/>
      <point x="1130" y="537" type="line"/>
      <point x="1211" y="572"/>
      <point x="1267" y="653"/>
      <point x="1267" y="733" type="curve" smooth="yes"/>
      <point x="1267" y="1039" type="line" smooth="yes"/>
      <point x="1267" y="1150"/>
      <point x="1161" y="1251"/>
      <point x="1045" y="1251" type="curve" smooth="yes"/>
      <point x="536" y="1251" type="line" smooth="yes"/>
      <point x="417" y="1251"/>
      <point x="311" y="1145"/>
      <point x="311" y="1026" type="curve" smooth="yes"/>
      <point x="311" y="394" type="line" smooth="yes"/>
      <point x="311" y="264"/>
      <point x="387" y="171"/>
      <point x="495" y="171" type="curve" smooth="yes"/>
      <point x="840" y="171" type="line"/>
      <point x="840" y="0" type="line"/>
      <point x="490" y="0" type="line" smooth="yes"/>
      <point x="287" y="0"/>
      <point x="140" y="165"/>
    </contour>
  </outline>
</glyph>
<glyph name="A" format="2">
  <advance width="1361"/>
  <unicode hex="0041"/>
  <anchor x="681" y="1544" name="top"/>
  <anchor x="1204" y="6" name="botton"/>
  <outline>
    <contour>
      <point x="40" y="0" type="line"/>
      <point x="549" y="1422" type="line"/>
      <point x="812" y="1422" type="line"/>
      <point x="1321" y="0" type="line"/>
      <point x="1096" y="0" type="line"/>
      <point x="941" y="428" type="line"/>
      <point x="544" y="428" type="line"/>
      <point x="620" y="638" type="line"/>
      <point x="865" y="638" type="line"/>
      <point x="681" y="1146" type="line"/>
      <point x="265" y="0" type="line"/>
    </contour>
  </outline>
</glyph>
<glyph name="I" format="2">
  <advance width="491"/>
  <unicode hex="0049"/>
  <anchor x="245" y="1544" name="top"/>
  <anchor x="246" y="6" name="botton"/>
  <outline>
    <contour>
      <point x="140" y="0" type="line"/>
      <point x="140" y="1422" type="line"/>
      <point x="351" y="1422" type="line"/>
      <point x="351" y="0" type="line"/>
    </contour>
  </outline>
</glyph>
<glyph name="N" format="2">
  <advance width="1384"/>
  <unicode hex="004E"/>
  <anchor x="692" y="-120" name="botton"/>
  <anchor x="692" y="1544" name="top"/>
  <outline>
    <contour>
      <point x="140" y="0" type="line"/>
      <point x="140" y="1422" type="line"/>
      <point x="414" y="1422" type="line"/>
      <point x="1033" y="305" type="line"/>
      <point x="1033" y="1422" type="line"/>
      <point x="1244" y="1422" type="line"/>
      <point x="1244" y="0" type="line"/>
      <point x="970" y="0" type="line"/>
      <point x="351" y="1102" type="line"/>
      <point x="351" y="0" type="line"/>
    </contour>
  </outline>
</glyph>
<glyph name="P" format="2">
  <advance width="1348"/>
  <unicode hex="0050"/>
  <outline>
    <contour>
      <point x="140" y="0" type="line"/>
      <point x="140" y="1422" type="line"/>
      <point x="892" y="1422" type="line" smooth="yes"/>
      <point x="1086" y="1422"/>
      <point x="1243" y="1265"/>
      <point x="1243" y="1072" type="curve" smooth="yes"/>
      <point x="1243" y="930" type="line" smooth="yes"/>
      <point x="1243" y="739"/>
      <point x="1086" y="585"/>
      <point x="892" y="585" type="curve" smooth="yes"/>
      <point x="471" y="585" type="line"/>
      <point x="471" y="795" type="line"/>
      <point x="892" y="795" type="line" smooth="yes"/>
      <point x="970" y="795"/>
      <point x="1033" y="856"/>
      <point x="1033" y="933" type="curve" smooth="yes"/>
      <point x="1033" y="1072" type="line" smooth="yes"/>
      <point x="1033" y="1149"/>
      <point x="970" y="1212"/>
      <point x="892" y="1212" type="curve" smooth="yes"/>
      <point x="351" y="1212" type="line"/>
      <point x="351" y="0" type="line"/>
    </contour>
  </outline>
</glyph>
<glyph name="V" format="2">
  <advance width="1361"/>
  <unicode hex="0056"/>
  <outline>
    <contour>
      <point x="40" y="1422" type="line"/>
      <point x="265" y="1422" type="line"/>
      <point x="681" y="256" type="line"/>
      <point x="1096" y="1422" type="line"/>
      <point x="1321" y="1422" type="line"/>
      <point x="812" y="0" type="line"/>
      <point x="549" y="0" type="line"/>
    </contour>
  </outline>
</glyph>
<glyph name="X" format="2">
  <advance width="1372"/>
  <unicode hex="0058"/>
  <outline>
    <contour>
      <point x="40" y="0" type="line"/>
      <point x="555" y="711" type="line"/>
      <point x="40" y="1422" type="line"/>
      <point x="298" y="1422" type="line"/>
      <point x="687" y="883" type="line"/>
      <point x="1075" y="1422" type="line"/>
      <point x="1332" y="1422" type="line"/>
      <point x="818" y="711" type="line"/>
      <point x="1332" y="0" type="line"/>
      <point x="1075" y="0" type="line"/>
      <point x="687" y="540" type="line"/>
      <point x="298" y="0" type="line"/>
    </contour>
  </outline>
</glyph>
<glyph name="Z" format="2">
  <advance width="1347"/>
  <unicode hex="005A"/>
  <anchor x="674" y="6" name="botton"/>
  <anchor x="674" y="1544" name="top"/>
  <outline>
    <contour>
      <point x="120" y="0" type="line"/>
      <point x="120" y="155" type="line"/>
      <point x="927" y="1212" type="line"/>
      <point x="120" y="1212" type="line"/>
      <point x="120" y="1422" type="line"/>
      <point x="1227" y="1422" type="line"/>
      <point x="1227" y="1265" type="line"/>
      <point x="422" y="208" type="line"/>
      <point x="1223" y="208" type="line"/>
      <point x="1223" y="0" type="line"/>
    </contour>
  </outline>
</glyph>
<glyph name="backslash" format="2">
  <advance width="1391"/>
  <unicode hex="005C"/>
  <outline>
    <contour>
      <point x="20" y="1540" type="line"/>
      <point x="260" y="1540" type="line"/>
      <point x="1371" y="-42" type="line"/>
      <point x="1131" y="-42" type="line"/>
    </contour>
  </outline>
</glyph>
<glyph name="bracketright" format="2">
  <advance width="610"/>
  <unicode hex="005D"/>
  <outline>
    <contour>
      <point x="35" y="-183" type="line"/>
      <point x="287" y="-183" type="line"/>
      <point x="287" y="1422" type="line"/>
      <point x="35" y="1422" type="line"/>
      <point x="35" y="1630" type="line"/>
      <point x="495" y="1630" type="line"/>
      <point x="495" y="-390" type="line"/>
      <point x="35" y="-390" type="line"/>
    </contour>
  </outline>
</glyph>
<glyph name="underscore" format="2">
  <advance width="1281"/>
  <unicode hex="005F"/>
  <outline>
    <contour>
      <point x="110" y="0" type="line"/>
      <point x="1171" y="0" type="line"/>
      <point x="1171" y="-176" type="line"/>
      <point x="110" y="-176" type="line"/>
    </contour>
  </outline>
</glyph>
<glyph name="b" format="2">
  <advance width="1182"/>
  <unicode hex="0062"/>
  <outline>
    <contour>
      <point x="110" y="211" type="curve" smooth="yes"/>
      <point x="110" y="1422" type="line"/>
      <point x="321" y="1422" type="line"/>
      <point x="321" y="211" type="line"/>
      <point x="688" y="211" type="line" smooth="yes"/>
      <point x="778" y="211"/>
      <point x="851" y="284"/>
      <point x="851" y="374" type="curve" smooth="yes"/>
      <point x="851" y="660" type="line" smooth="yes"/>
      <point x="851" y="751"/>
      <point x="778" y="825"/>
      <point x="688" y="825" type="curve" smooth="yes"/>
      <point x="441" y="825" type="line"/>
      <point x="441" y="1036" type="line"/>
      <point x="688" y="1036" type="line" smooth="yes"/>
      <point x="894" y="1036"/>
      <point x="1062" y="868"/>
      <point x="1062" y="662" type="curve" smooth="yes"/>
      <point x="1062" y="372" type="line" smooth="yes"/>
      <point x="1062" y="167"/>
      <point x="894" y="0"/>
      <point x="688" y="0" type="curve" smooth="yes"/>
      <point x="321" y="0" type="line" smooth="yes"/>
      <point x="205" y="0"/>
      <point x="110" y="95"/>
    </contour>
  </outline>
</glyph>
<glyph name="g" format="2">
  <advance width="1182"/>
  <unicode hex="0067"/>
  <anchor x="591" y="1158" name="top"/>
  <outline>
    <contour>
      <point x="110" y="373" type="curve" smooth="yes"/>
      <point x="110" y="663" type="line" smooth="yes"/>
      <point x="110" y="868"/>
      <point x="278" y="1035"/>
      <point x="484" y="1035" type="curve" smooth="yes"/>
      <point x="851" y="1035" type="line" smooth="yes"/>
      <point x="967" y="1035"/>
      <point x="1062" y="940"/>
      <point x="1062" y="824" type="curve" smooth="yes"/>
      <point x="1062" y="-14" type="line" smooth="yes"/>
      <point x="1062" y="-220"/>
      <point x="894" y="-388"/>
      <point x="688" y="-388" type="curve" smooth="yes"/>
      <point x="177" y="-388" type="line"/>
      <point x="177" y="-182" type="line"/>
      <point x="690" y="-182" type="line" smooth="yes"/>
      <point x="779" y="-182"/>
      <point x="851" y="-107"/>
      <point x="851" y="-15" type="curve" smooth="yes"/>
      <point x="851" y="824" type="line"/>
      <point x="484" y="824" type="line" smooth="yes"/>
      <point x="394" y="824"/>
      <point x="321" y="751"/>
      <point x="321" y="661" type="curve" smooth="yes"/>
      <point x="321" y="375" type="line" smooth="yes"/>
      <point x="321" y="284"/>
      <point x="394" y="210"/>
      <point x="484" y="210" type="curve" smooth="yes"/>
      <point x="731" y="210" type="line"/>
      <point x="731" y="0" type="line"/>
      <point x="484" y="0" type="line" smooth="yes"/>
      <point x="278" y="0"/>
      <point x="110" y="167"/>
    </contour>
  </outline>
</glyph>
<glyph name="h" format="2">
  <advance width="1167"/>
  <unicode hex="0068"/>
  <anchor x="225" y="1544" name="top"/>
  <outline>
    <contour>
      <point x="120" y="0" type="line"/>
      <point x="120" y="1422" type="line"/>
      <point x="331" y="1422" type="line"/>
      <point x="331" y="1036" type="line"/>
      <point x="657" y="1036" type="line" smooth="yes"/>
      <point x="872" y="1036"/>
      <point x="1047" y="869"/>
      <point x="1047" y="663" type="curve" smooth="yes"/>
      <point x="1047" y="0" type="line"/>
      <point x="836" y="0" type="line"/>
      <point x="836" y="660" type="line" smooth="yes"/>
      <point x="836" y="748"/>
      <point x="753" y="825"/>
      <point x="657" y="825" type="curve" smooth="yes"/>
      <point x="331" y="825" type="line"/>
      <point x="331" y="0" type="line"/>
    </contour>
  </outline>
</glyph>
<glyph name="k" format="2">
  <advance width="1123"/>
  <unicode hex="006B"/>
  <anchor x="562" y="-120" name="botton"/>
  <outline>
    <contour>
      <point x="120" y="0" type="line"/>
      <point x="120" y="1422" type="line"/>
      <point x="331" y="1422" type="line"/>
      <point x="331" y="639" type="line"/>
      <point x="402" y="639" type="line"/>
      <point x="777" y="1036" type="line"/>
      <point x="1051" y="1036" type="line"/>
      <point x="578" y="534" type="line"/>
      <point x="1093" y="0" type="line"/>
      <point x="798" y="0" type="line"/>
      <point x="383" y="428" type="line"/>
      <point x="331" y="428" type="line"/>
      <point x="331" y="0" type="line"/>
    </contour>
  </outline>
</glyph>
<glyph name="n" format="2">
  <advance width="1192"/>
  <unicode hex="006E"/>
  <anchor x="596" y="-120" name="botton"/>
  <anchor x="596" y="1158" name="top"/>
  <outline>
    <contour>
      <point x="120" y="0" type="line"/>
      <point x="120" y="826" type="line" smooth="yes"/>
      <point x="120" y="942"/>
      <point x="215" y="1036"/>
      <point x="333" y="1036" type="curve" smooth="yes"/>
      <point x="698" y="1036" type="line" smooth="yes"/>
      <point x="904" y="1036"/>
      <point x="1072" y="868"/>
      <point x="1072" y="662" type="curve" smooth="yes"/>
      <point x="1072" y="0" type="line"/>
      <point x="861" y="0" type="line"/>
      <point x="861" y="659" type="line" smooth="yes"/>
      <point x="861" y="752"/>
      <point x="788" y="827"/>
      <point x="698" y="827" type="curve" smooth="yes"/>
      <point x="331" y="827" type="line"/>
      <point x="331" y="0" type="line"/>
    </contour>
  </outline>
</glyph>
<glyph name="q" format="2">
  <advance width="1182"/>
  <unicode hex="0071"/>
  <outline>
    <contour>
      <point x="110" y="374" type="curve" smooth="yes"/>
      <point x="110" y="664" type="line" smooth="yes"/>
      <point x="110" y="869"/>
      <point x="278" y="1036"/>
      <point x="484" y="1036" type="curve" smooth="yes"/>
      <point x="851" y="1036" type="line" smooth="yes"/>
      <point x="967" y="1036"/>
      <point x="1062" y="941"/>
      <point x="1062" y="825" type="curve" smooth="yes"/>
      <point x="1062" y="-386" type="line"/>
      <point x="851" y="-386" type="line"/>
      <point x="851" y="825" type="line"/>
      <point x="484" y="825" type="line" smooth="yes"/>
      <point x="394" y="825"/>
      <point x="321" y="752"/>
      <point x="321" y="662" type="curve" smooth="yes"/>
      <point x="321" y="376" type="line" smooth="yes"/>
      <point x="321" y="285"/>
      <point x="394" y="211"/>
      <point x="484" y="211" type="curve" smooth="yes"/>
      <point x="731" y="211" type="line"/>
      <point x="731" y="0" type="line"/>
      <point x="484" y="0" type="line" smooth="yes"/>
      <point x="278" y="0"/>
      <point x="110" y="168"/>
    </contour>
  </outline>
</glyph>
<glyph name="r" format="2">
  <advance width="719"/>
  <unicode hex="0072"/>
  <anchor x="360" y="1158" name="top"/>
  <anchor x="226" y="-120" name="botton"/>
  <outline>
    <contour>
      <point x="120" y="0" type="line"/>
      <point x="120" y="746" type="line" smooth="yes"/>
      <point x="120" y="906"/>
      <point x="254" y="1036"/>
      <point x="418" y="1036" type="curve" smooth="yes"/>
      <point x="649" y="1036" type="line"/>
      <point x="649" y="826" type="line"/>
      <point x="418" y="826" type="line" smooth="yes"/>
      <point x="370" y="826"/>
      <point x="331" y="789"/>
      <point x="331" y="742" type="curve" smooth="yes"/>
      <point x="331" y="0" type="line"/>
    </contour>
  </outline>
</glyph>
<glyph name="t" format="2">
  <advance width="805"/>
  <unicode hex="0074"/>
  <anchor x="554" y="6" name="botton"/>
  <outline>
    <contour>
      <point x="70" y="825" type="line"/>
      <point x="70" y="1036" type="line"/>
      <point x="205" y="1036" type="line"/>
      <point x="205" y="1422" type="line"/>
      <point x="416" y="1422" type="line"/>
      <point x="416" y="1036" type="line"/>
      <point x="735" y="1036" type="line"/>
      <point x="735" y="825" type="line"/>
      <point x="416" y="825" type="line"/>
      <point x="416" y="294" type="line" smooth="yes"/>
      <point x="416" y="248"/>
      <point x="456" y="211"/>
      <point x="506" y="211" type="curve" smooth="yes"/>
      <point x="735" y="211" type="line"/>
      <point x="735" y="0" type="line"/>
      <point x="503" y="0" type="line" smooth="yes"/>
      <point x="339" y="0"/>
      <point x="205" y="131"/>
      <point x="205" y="293" type="curve" smooth="yes"/>
      <point x="205" y="825" type="line"/>
    </contour>
  </outline>
</glyph>
<glyph name="u" format="2">
  <advance width="1192"/>
  <unicode hex="0075"/>
  <anchor x="824" y="6" name="botton"/>
  <anchor x="596" y="1158" name="top"/>
  <outline>
    <contour>
      <point x="120" y="374" type="curve" smooth="yes"/>
      <point x="120" y="1036" type="line"/>
      <point x="331" y="1036" type="line"/>
      <point x="331" y="377" type="line" smooth="yes"/>
      <point x="331" y="284"/>
      <point x="404" y="209"/>
      <point x="494" y="209" type="curve" smooth="yes"/>
      <point x="861" y="209" type="line"/>
      <point x="861" y="1036" type="line"/>
      <point x="1072" y="1036" type="line"/>
      <point x="1072" y="210" type="line" smooth="yes"/>
      <point x="1072" y="94"/>
      <point x="977" y="0"/>
      <point x="859" y="0" type="curve" smooth="yes"/>
      <point x="494" y="0" type="line" smooth="yes"/>
      <point x="288" y="0"/>
      <point x="120" y="168"/>
    </contour>
  </outline>
</glyph>
<glyph name="braceleft" format="2">
  <advance width="725"/>
  <unicode hex="007B"/>
  <outline>
    <contour>
      <point x="90" y="521" type="curve"/>
      <point x="90" y="735" type="line"/>
      <point x="212" y="735"/>
      <point x="223" y="745"/>
      <point x="223" y="853" type="curve" smooth="yes"/>
      <point x="223" y="1261" type="line" smooth="yes"/>
      <point x="223" y="1575"/>
      <point x="294" y="1632"/>
      <point x="685" y="1632" type="curve"/>
      <point x="685" y="1422" type="line"/>
      <point x="445" y="1422"/>
      <point x="434" y="1415"/>
      <point x="434" y="1261" type="curve" smooth="yes"/>
      <point x="434" y="853" type="line" smooth="yes"/>
      <point x="434" y="771"/>
      <point x="408" y="685"/>
      <point x="367" y="629" type="curve"/>
      <point x="410" y="573"/>
      <point x="434" y="493"/>
      <point x="434" y="406" type="curve" smooth="yes"/>
      <point x="434" y="-38" type="line" smooth="yes"/>
      <point x="434" y="-161"/>
      <point x="468" y="-180"/>
      <point x="685" y="-180" type="curve"/>
      <point x="685" y="-390" type="line"/>
      <point x="298" y="-390"/>
      <point x="223" y="-333"/>
      <point x="223" y="-38" type="curve" smooth="yes"/>
      <point x="223" y="406" type="line" smooth="yes"/>
      <point x="223" y="496"/>
      <point x="194" y="521"/>
    </contour>
  </outline>
</glyph>
<glyph name="asciitilde" format="2">
  <advance width="1275"/>
  <unicode hex="007E"/>
  <outline>
    <contour>
      <point x="110" y="402" type="line"/>
      <point x="110" y="579"/>
      <point x="234" y="706"/>
      <point x="407" y="706" type="curve" smooth="yes"/>
      <point x="489" y="706"/>
      <point x="569" y="687"/>
      <point x="683" y="641" type="curve" smooth="yes"/>
      <point x="766" y="610"/>
      <point x="816" y="598"/>
      <point x="864" y="598" type="curve" smooth="yes"/>
      <point x="929" y="598"/>
      <point x="964" y="636"/>
      <point x="964" y="707" type="curve"/>
      <point x="1165" y="707" type="line"/>
      <point x="1165" y="515"/>
      <point x="1048" y="402"/>
      <point x="849" y="402" type="curve" smooth="yes"/>
      <point x="772" y="402"/>
      <point x="705" y="418"/>
      <point x="561" y="470" type="curve" smooth="yes"/>
      <point x="486" y="497"/>
      <point x="441" y="507"/>
      <point x="405" y="507" type="curve" smooth="yes"/>
      <point x="344" y="507"/>
      <point x="313" y="472"/>
      <point x="313" y="402" type="curve"/>
    </contour>
  </outline>
</glyph>
<glyph name="sterling" format="2">
  <advance width="1214"/>
  <unicode hex="00A3"/>
  <outline>
    <contour>
      <point x="110" y="635" type="line"/>
      <point x="110" y="846" type="line"/>
      <point x="224" y="846" type="line"/>
      <point x="220" y="928"/>
      <point x="218" y="1009"/>
      <point x="218" y="1064" type="curve" smooth="yes"/>
      <point x="218" y="1271"/>
      <point x="387" y="1422"/>
      <point x="619" y="1422" type="curve" smooth="yes"/>
      <point x="1094" y="1422" type="line"/>
      <point x="1094" y="1212" type="line"/>
      <point x="619" y="1212" type="line" smooth="yes"/>
      <point x="504" y="1212"/>
      <point x="429" y="1154"/>
      <point x="429" y="1065" type="curve" smooth="yes"/>
      <point x="429" y="992"/>
      <point x="431" y="891"/>
      <point x="434" y="846" type="curve"/>
      <point x="962" y="846" type="line"/>
      <point x="962" y="635" type="line"/>
      <point x="438" y="635" type="line"/>
      <point x="438" y="444" type="line" smooth="yes"/>
      <point x="438" y="320"/>
      <point x="429" y="261"/>
      <point x="402" y="211" type="curve"/>
      <point x="1094" y="211" type="line"/>
      <point x="1094" y="0" type="line"/>
      <point x="146" y="0" type="line"/>
      <point x="146" y="167" type="line"/>
      <point x="203" y="225"/>
      <point x="227" y="307"/>
      <point x="227" y="444" type="curve" smooth="yes"/>
      <point x="227" y="635" type="line"/>
    </contour>
  </outline>
</glyph>
<glyph name="yen" format="2">
  <advance width="1417"/>
  <unicode hex="00A5"/>
  <outline>
    <contour>
      <point x="63" y="1422" type="line"/>
      <point x="320" y="1422" type="line"/>
      <point x="710" y="883" type="line"/>
      <point x="1098" y="1422" type="line"/>
      <point x="1354" y="1422" type="line"/>
      <point x="884" y="770" type="line"/>
      <point x="1163" y="770" type="line"/>
      <point x="1163" y="584" type="line"/>
      <point x="818" y="584" type="line"/>
      <point x="818" y="464" type="line"/>
      <point x="1163" y="464" type="line"/>
      <point x="1163" y="276" type="line"/>
      <point x="818" y="276" type="line"/>
      <point x="818" y="0" type="line"/>
      <point x="602" y="0" type="line"/>
      <point x="602" y="276" type="line"/>
      <point x="256" y="276" type="line"/>
      <point x="256" y="464" type="line"/>
      <point x="602" y="464" type="line"/>
      <point x="602" y="584" type="line"/>
      <point x="256" y="584" type="line"/>
      <point x="256" y="770" type="line"/>
      <point x="536" y="770" type="line"/>
    </contour>
  </outline>
</glyph>
<glyph name="dieresis" format="2">
  <advance width="801"/>
  <unicode hex="00A8"/>
  <anchor x="400" y="1200" name="_top"/>
  <outline>
    <contour>
      <point x="120" y="1311" type="curve" smooth="yes"/>
      <point x="120" y="1373"/>
      <point x="169" y="1422"/>
      <point x="230" y="1422" type="curve" smooth="yes"/>
      <point x="292" y="1422"/>
      <point x="341" y="1373"/>
      <point x="341" y="1311" type="curve" smooth="yes"/>
      <point x="341" y="1250"/>
      <point x="292" y="1201"/>
      <point x="230" y="1201" type="curve" smooth="yes"/>
      <point x="169" y="1201"/>
      <point x="120" y="1250"/>
    </contour>
    <contour>
      <point x="460" y="1311" type="curve" smooth="yes"/>
      <point x="460" y="1373"/>
      <point x="509" y="1422"/>
      <point x="570" y="1422" type="curve" smooth="yes"/>
      <point x="632" y="1422"/>
      <point x="681" y="1373"/>
      <point x="681" y="1311" type="curve" smooth="yes"/>
      <point x="681" y="1250"/>
      <point x="632" y="1201"/>
      <point x="570" y="1201" type="curve" smooth="yes"/>
      <point x="509" y="1201"/>
      <point x="460" y="1250"/>
    </contour>
  </outline>
</glyph>
<glyph name="ordfeminine" format="2">
  <advance width="830"/>
  <unicode hex="00AA"/>
  <outline>
    <contour>
      <point x="120" y="1006" type="curve" smooth="yes"/>
      <point x="120" y="1194" type="line" smooth="yes"/>
      <point x="120" y="1321"/>
      <point x="229" y="1422"/>
      <point x="368" y="1422" type="curve" smooth="yes"/>
      <point x="710" y="1422" type="line"/>
      <point x="710" y="777" type="line"/>
      <point x="368" y="777" type="line" smooth="yes"/>
      <point x="230" y="777"/>
      <point x="120" y="878"/>
    </contour>
    <contour>
      <point x="248" y="1007" type="line" smooth="yes"/>
      <point x="248" y="950"/>
      <point x="301" y="905"/>
      <point x="368" y="905" type="curve" smooth="yes"/>
      <point x="583" y="905" type="line"/>
      <point x="583" y="1294" type="line"/>
      <point x="368" y="1294" type="line" smooth="yes"/>
      <point x="301" y="1294"/>
      <point x="248" y="1250"/>
      <point x="248" y="1193" type="curve" smooth="yes"/>
    </contour>
  </outline>
</glyph>
<glyph name="logicalnot" format="2">
  <advance width="1233"/>
  <unicode hex="00AC"/>
  <outline>
    <contour>
      <point x="110" y="466" type="line"/>
      <point x="110" y="642" type="line"/>
      <point x="1124" y="642" type="line"/>
      <point x="1124" y="231" type="line"/>
      <point x="948" y="231" type="line"/>
      <point x="948" y="466" type="line"/>
    </contour>
  </outline>
</glyph>
<glyph name="registered" format="2">
  <advance width="1277"/>
  <unicode hex="00AE"/>
  <outline>
    <contour>
      <point x="140" y="647" type="curve" smooth="yes"/>
      <point x="140" y="1144" type="line" smooth="yes"/>
      <point x="140" y="1299"/>
      <point x="266" y="1424"/>
      <point x="421" y="1424" type="curve" smooth="yes"/>
      <point x="856" y="1424" type="line" smooth="yes"/>
      <point x="1011" y="1424"/>
      <point x="1137" y="1299"/>
      <point x="1137" y="1144" type="curve" smooth="yes"/>
      <point x="1137" y="647" type="line" smooth="yes"/>
      <point x="1137" y="492"/>
      <point x="1011" y="366"/>
      <point x="856" y="366" type="curve" smooth="yes"/>
      <point x="421" y="366" type="line" smooth="yes"/>
      <point x="266" y="366"/>
      <point x="140" y="492"/>
    </contour>
    <contour>
      <point x="267" y="647" type="line" smooth="yes"/>
      <point x="267" y="562"/>
      <point x="336" y="493"/>
      <point x="421" y="493" type="curve" smooth="yes"/>
      <point x="856" y="493" type="line" smooth="yes"/>
      <point x="941" y="493"/>
      <point x="1010" y="562"/>
      <point x="1010" y="647" type="curve" smooth="yes"/>
      <point x="1010" y="1144" type="line" smooth="yes"/>
      <point x="1010" y="1228"/>
      <point x="941" y="1297"/>
      <point x="856" y="1297" type="curve" smooth="yes"/>
      <point x="421" y="1297" type="line" smooth="yes"/>
      <point x="336" y="1297"/>
      <point x="267" y="1228"/>
      <point x="267" y="1144" type="curve" smooth="yes"/>
    </contour>
    <contour>
      <point x="388" y="577" type="line"/>
      <point x="388" y="1216" type="line"/>
      <point x="708" y="1216" type="line" smooth="yes"/>
      <point x="798" y="1216"/>
      <point x="874" y="1138"/>
      <point x="874" y="1044" type="curve" smooth="yes"/>
      <point x="874" y="999" type="line" smooth="yes"/>
      <point x="874" y="910"/>
      <point x="809" y="837"/>
      <point x="722" y="827" type="curve"/>
      <point x="912" y="577" type="line"/>
      <point x="765" y="577" type="line"/>
      <point x="576" y="825" type="line"/>
      <point x="515" y="825" type="line"/>
      <point x="515" y="577" type="line"/>
    </contour>
    <contour>
      <point x="515" y="952" type="line"/>
      <point x="708" y="952" type="line" smooth="yes"/>
      <point x="729" y="952"/>
      <point x="747" y="973"/>
      <point x="747" y="999" type="curve" smooth="yes"/>
      <point x="747" y="1044" type="line" smooth="yes"/>
      <point x="747" y="1070"/>
      <point x="729" y="1092"/>
      <point x="708" y="1092" type="curve" smooth="yes"/>
      <point x="515" y="1092" type="line"/>
    </contour>
  </outline>
</glyph>
<glyph name="degree" format="2">
  <advance width="718"/>
  <unicode hex="00B0"/>
  <outline>
    <contour>
      <point x="120" y="1127" type="curve" smooth="yes"/>
      <point x="120" y="1210" type="line" smooth="yes"/>
      <point x="120" y="1327"/>
      <point x="215" y="1422"/>
      <point x="333" y="1422" type="curve" smooth="yes"/>
      <point x="385" y="1422" type="line" smooth="yes"/>
      <point x="503" y="1422"/>
      <point x="598" y="1327"/>
      <point x="598" y="1210" type="curve" smooth="yes"/>
      <point x="598" y="1127" type="line" smooth="yes"/>
      <point x="598" y="1010"/>
      <point x="503" y="915"/>
      <point x="385" y="915" type="curve" smooth="yes"/>
      <point x="333" y="915" type="line" smooth="yes"/>
      <point x="215" y="915"/>
      <point x="120" y="1010"/>
    </contour>
    <contour>
      <point x="238" y="1127" type="line" smooth="yes"/>
      <point x="238" y="1075"/>
      <point x="281" y="1033"/>
      <point x="333" y="1033" type="curve" smooth="yes"/>
      <point x="385" y="1033" type="line" smooth="yes"/>
      <point x="437" y="1033"/>
      <point x="480" y="1075"/>
      <point x="480" y="1127" type="curve" smooth="yes"/>
      <point x="480" y="1210" type="line" smooth="yes"/>
      <point x="480" y="1262"/>
      <point x="437" y="1304"/>
      <point x="385" y="1304" type="curve" smooth="yes"/>
      <point x="333" y="1304" type="line" smooth="yes"/>
      <point x="281" y="1304"/>
      <point x="238" y="1262"/>
      <point x="238" y="1210" type="curve" smooth="yes"/>
    </contour>
  </outline>
</glyph>
<glyph name="plusminus" format="2">
  <advance width="1213"/>
  <unicode hex="00B1"/>
  <outline>
    <contour>
      <point x="110" y="-3" type="line"/>
      <point x="110" y="173" type="line"/>
      <point x="1104" y="173" type="line"/>
      <point x="1104" y="-3" type="line"/>
    </contour>
    <contour>
      <point x="110" y="660" type="line"/>
      <point x="110" y="836" type="line"/>
      <point x="519" y="836" type="line"/>
      <point x="519" y="1234" type="line"/>
      <point x="695" y="1234" type="line"/>
      <point x="695" y="836" type="line"/>
      <point x="1104" y="836" type="line"/>
      <point x="1104" y="660" type="line"/>
      <point x="695" y="660" type="line"/>
      <point x="695" y="262" type="line"/>
      <point x="519" y="262" type="line"/>
      <point x="519" y="660" type="line"/>
    </contour>
  </outline>
</glyph>
<glyph name="threesuperior" format="2">
  <advance width="790"/>
  <unicode hex="00B3"/>
  <outline>
    <contour>
      <point x="70" y="596" type="line"/>
      <point x="70" y="727" type="line"/>
      <point x="512" y="727" type="line" smooth="yes"/>
      <point x="555" y="727"/>
      <point x="590" y="761"/>
      <point x="590" y="802" type="curve" smooth="yes"/>
      <point x="590" y="880" type="line" smooth="yes"/>
      <point x="590" y="927"/>
      <point x="542" y="967"/>
      <point x="484" y="967" type="curve" smooth="yes"/>
      <point x="289" y="967" type="line"/>
      <point x="289" y="1097" type="line"/>
      <point x="484" y="1097" type="line" smooth="yes"/>
      <point x="534" y="1097"/>
      <point x="574" y="1134"/>
      <point x="574" y="1180" type="curve" smooth="yes"/>
      <point x="574" y="1217" type="line" smooth="yes"/>
      <point x="574" y="1258"/>
      <point x="539" y="1291"/>
      <point x="496" y="1291" type="curve" smooth="yes"/>
      <point x="70" y="1291" type="line"/>
      <point x="70" y="1422" type="line"/>
      <point x="494" y="1422" type="line" smooth="yes"/>
      <point x="610" y="1422"/>
      <point x="704" y="1331"/>
      <point x="704" y="1219" type="curve" smooth="yes"/>
      <point x="704" y="1178" type="line" smooth="yes"/>
      <point x="704" y="1121"/>
      <point x="681" y="1072"/>
      <point x="637" y="1038" type="curve"/>
      <point x="695" y="1001"/>
      <point x="720" y="953"/>
      <point x="720" y="879" type="curve" smooth="yes"/>
      <point x="720" y="801" type="line" smooth="yes"/>
      <point x="720" y="688"/>
      <point x="626" y="596"/>
      <point x="511" y="596" type="curve" smooth="yes"/>
    </contour>
  </outline>
</glyph>
<glyph name="uni00B5" format="2">
  <advance width="1192"/>
  <unicode hex="00B5"/>
  <outline>
    <contour>
      <point x="120" y="-390" type="line"/>
      <point x="120" y="1036" type="line"/>
      <point x="331" y="1036" type="line"/>
      <point x="331" y="377" type="line" smooth="yes"/>
      <point x="331" y="284"/>
      <point x="404" y="209"/>
      <point x="494" y="209" type="curve" smooth="yes"/>
      <point x="861" y="209" type="line"/>
      <point x="861" y="1036" type="line"/>
      <point x="1072" y="1036" type="line"/>
      <point x="1072" y="210" type="line" smooth="yes"/>
      <point x="1072" y="94"/>
      <point x="977" y="0"/>
      <point x="859" y="0" type="curve" smooth="yes"/>
      <point x="494" y="0" type="line" smooth="yes"/>
      <point x="439" y="0"/>
      <point x="384" y="13"/>
      <point x="330" y="38" type="curve"/>
      <point x="330" y="-390" type="line"/>
    </contour>
  </outline>
</glyph>
<glyph name="paragraph" format="2">
  <advance width="1039"/>
  <unicode hex="00B6"/>
  <outline>
    <contour>
      <point x="90" y="1069" type="curve" smooth="yes"/>
      <point x="90" y="1275"/>
      <point x="259" y="1422"/>
      <point x="497" y="1422" type="curve" smooth="yes"/>
      <point x="626" y="1422" type="line"/>
      <point x="626" y="0" type="line"/>
      <point x="480" y="0" type="line"/>
      <point x="480" y="719" type="line"/>
      <point x="247" y="726"/>
      <point x="90" y="867"/>
    </contour>
    <contour>
      <point x="752" y="0" type="line"/>
      <point x="752" y="1422" type="line"/>
      <point x="899" y="1422" type="line"/>
      <point x="899" y="0" type="line"/>
    </contour>
  </outline>
</glyph>
<glyph name="onesuperior" format="2">
  <advance width="413"/>
  <unicode hex="00B9"/>
  <outline>
    <contour>
      <point x="40" y="1291" type="line"/>
      <point x="40" y="1422" type="line"/>
      <point x="313" y="1422" type="line"/>
      <point x="313" y="596" type="line"/>
      <point x="183" y="596" type="line"/>
      <point x="183" y="1291" type="line"/>
    </contour>
  </outline>
</glyph>
<glyph name="ordmasculine" format="2">
  <advance width="809"/>
  <unicode hex="00BA"/>
  <outline>
    <contour>
      <point x="120" y="996" type="curve" smooth="yes"/>
      <point x="120" y="1200" type="line" smooth="yes"/>
      <point x="120" y="1323"/>
      <point x="220" y="1422"/>
      <point x="343" y="1422" type="curve" smooth="yes"/>
      <point x="466" y="1422" type="line" smooth="yes"/>
      <point x="589" y="1422"/>
      <point x="689" y="1323"/>
      <point x="689" y="1200" type="curve" smooth="yes"/>
      <point x="689" y="996" type="line" smooth="yes"/>
      <point x="689" y="873"/>
      <point x="589" y="774"/>
      <point x="466" y="774" type="curve" smooth="yes"/>
      <point x="343" y="774" type="line" smooth="yes"/>
      <point x="220" y="774"/>
      <point x="120" y="873"/>
    </contour>
    <contour>
      <point x="248" y="1007" type="line" smooth="yes"/>
      <point x="248" y="990"/>
      <point x="248" y="989"/>
      <point x="249" y="984" type="curve" smooth="yes"/>
      <point x="255" y="937"/>
      <point x="296" y="902"/>
      <point x="343" y="902" type="curve" smooth="yes"/>
      <point x="466" y="902" type="line" smooth="yes"/>
      <point x="518" y="902"/>
      <point x="561" y="944"/>
      <point x="561" y="996" type="curve" smooth="yes"/>
      <point x="561" y="1189" type="line" smooth="yes"/>
      <point x="561" y="1206"/>
      <point x="561" y="1207"/>
      <point x="560" y="1212" type="curve" smooth="yes"/>
      <point x="554" y="1259"/>
      <point x="513" y="1294"/>
      <point x="466" y="1294" type="curve" smooth="yes"/>
      <point x="343" y="1294" type="line" smooth="yes"/>
      <point x="291" y="1294"/>
      <point x="248" y="1252"/>
      <point x="248" y="1200" type="curve" smooth="yes"/>
    </contour>
  </outline>
</glyph>
<glyph name="guillemotright" format="2">
  <advance width="1288"/>
  <unicode hex="00BB"/>
  <outline>
    <contour>
      <point x="110" y="94" type="line"/>
      <point x="110" y="317" type="line"/>
      <point x="440" y="549" type="line"/>
      <point x="110" y="783" type="line"/>
      <point x="110" y="1007" type="line"/>
      <point x="685" y="604" type="line"/>
      <point x="685" y="497" type="line"/>
    </contour>
    <contour>
      <point x="602" y="94" type="line"/>
      <point x="602" y="317" type="line"/>
      <point x="933" y="549" type="line"/>
      <point x="602" y="783" type="line"/>
      <point x="602" y="1007" type="line"/>
      <point x="1178" y="604" type="line"/>
      <point x="1178" y="497" type="line"/>
    </contour>
  </outline>
</glyph>
<glyph name="onehalf" format="2">
  <advance width="2030"/>
  <unicode hex="00BD"/>
  <outline>
    <contour>
      <point x="120" y="1292" type="line"/>
      <point x="120" y="1422" type="line"/>
      <point x="393" y="1422" type="line"/>
      <point x="393" y="588" type="line"/>
      <point x="263" y="588" type="line"/>
      <point x="263" y="1292" type="line"/>
    </contour>
    <contour>
      <point x="265" y="0" type="line"/>
      <point x="1273" y="1422" type="line"/>
      <point x="1433" y="1422" type="line"/>
      <point x="425" y="0" type="line"/>
    </contour>
    <contour>
      <point x="1261" y="0" type="line"/>
      <point x="1261" y="281" type="line" smooth="yes"/>
      <point x="1261" y="371"/>
      <point x="1299" y="409"/>
      <point x="1409" y="430" type="curve" smooth="yes"/>
      <point x="1717" y="489" type="line" smooth="yes"/>
      <point x="1754" y="496"/>
      <point x="1780" y="530"/>
      <point x="1780" y="569" type="curve" smooth="yes"/>
      <point x="1780" y="622" type="line" smooth="yes"/>
      <point x="1780" y="665"/>
      <point x="1746" y="699"/>
      <point x="1703" y="699" type="curve" smooth="yes"/>
      <point x="1303" y="699" type="line"/>
      <point x="1303" y="830" type="line"/>
      <point x="1703" y="830" type="line" smooth="yes"/>
      <point x="1817" y="830"/>
      <point x="1910" y="739"/>
      <point x="1910" y="627" type="curve" smooth="yes"/>
      <point x="1910" y="568" type="line" smooth="yes"/>
      <point x="1910" y="469"/>
      <point x="1848" y="385"/>
      <point x="1764" y="369" type="curve" smooth="yes"/>
      <point x="1418" y="304" type="line" smooth="yes"/>
      <point x="1397" y="300"/>
      <point x="1392" y="296"/>
      <point x="1392" y="283" type="curve" smooth="yes"/>
      <point x="1392" y="131" type="line"/>
      <point x="1909" y="131" type="line"/>
      <point x="1909" y="0" type="line"/>
    </contour>
  </outline>
</glyph>
<glyph name="threequarters" format="2">
  <advance width="2329"/>
  <unicode hex="00BE"/>
  <outline>
    <contour>
      <point x="120" y="596" type="line"/>
      <point x="120" y="727" type="line"/>
      <point x="562" y="727" type="line" smooth="yes"/>
      <point x="605" y="727"/>
      <point x="640" y="761"/>
      <point x="640" y="802" type="curve" smooth="yes"/>
      <point x="640" y="880" type="line" smooth="yes"/>
      <point x="640" y="927"/>
      <point x="592" y="967"/>
      <point x="534" y="967" type="curve" smooth="yes"/>
      <point x="339" y="967" type="line"/>
      <point x="339" y="1097" type="line"/>
      <point x="534" y="1097" type="line" smooth="yes"/>
      <point x="584" y="1097"/>
      <point x="624" y="1134"/>
      <point x="624" y="1180" type="curve" smooth="yes"/>
      <point x="624" y="1217" type="line" smooth="yes"/>
      <point x="624" y="1258"/>
      <point x="589" y="1291"/>
      <point x="546" y="1291" type="curve" smooth="yes"/>
      <point x="120" y="1291" type="line"/>
      <point x="120" y="1422" type="line"/>
      <point x="544" y="1422" type="line" smooth="yes"/>
      <point x="660" y="1422"/>
      <point x="754" y="1331"/>
      <point x="754" y="1219" type="curve" smooth="yes"/>
      <point x="754" y="1178" type="line" smooth="yes"/>
      <point x="754" y="1121"/>
      <point x="731" y="1072"/>
      <point x="687" y="1038" type="curve"/>
      <point x="745" y="1001"/>
      <point x="770" y="953"/>
      <point x="770" y="879" type="curve" smooth="yes"/>
      <point x="770" y="801" type="line" smooth="yes"/>
      <point x="770" y="688"/>
      <point x="676" y="596"/>
      <point x="561" y="596" type="curve" smooth="yes"/>
    </contour>
    <contour>
      <point x="551" y="0" type="line"/>
      <point x="1551" y="1422" type="line"/>
      <point x="1711" y="1422" type="line"/>
      <point x="711" y="0" type="line"/>
    </contour>
    <contour>
      <point x="1581" y="541" type="curve" smooth="yes"/>
      <point x="1581" y="830" type="line"/>
      <point x="1711" y="830" type="line"/>
      <point x="1711" y="543" type="line" smooth="yes"/>
      <point x="1711" y="500"/>
      <point x="1744" y="466"/>
      <point x="1787" y="466" type="curve" smooth="yes"/>
      <point x="2069" y="466" type="line"/>
      <point x="2069" y="830" type="line"/>
      <point x="2199" y="830" type="line"/>
      <point x="2199" y="0" type="line"/>
      <point x="2069" y="0" type="line"/>
      <point x="2069" y="335" type="line"/>
      <point x="1788" y="335" type="line" smooth="yes"/>
      <point x="1673" y="335"/>
      <point x="1581" y="427"/>
    </contour>
  </outline>
</glyph>
<glyph name="questiondown" format="2">
  <advance width="1149"/>
  <unicode hex="00BF"/>
  <outline>
    <contour>
      <point x="90" y="-72" type="curve" smooth="yes"/>
      <point x="90" y="72" type="line" smooth="yes"/>
      <point x="90" y="260"/>
      <point x="171" y="352"/>
      <point x="416" y="442" type="curve" smooth="yes"/>
      <point x="548" y="489"/>
      <point x="586" y="514"/>
      <point x="586" y="554" type="curve" smooth="yes"/>
      <point x="586" y="726" type="line"/>
      <point x="797" y="726" type="line"/>
      <point x="797" y="554" type="line" smooth="yes"/>
      <point x="797" y="408"/>
      <point x="703" y="320"/>
      <point x="456" y="234" type="curve" smooth="yes"/>
      <point x="342" y="192"/>
      <point x="301" y="148"/>
      <point x="301" y="66" type="curve" smooth="yes"/>
      <point x="301" y="-71" type="line" smooth="yes"/>
      <point x="301" y="-131"/>
      <point x="350" y="-180"/>
      <point x="410" y="-180" type="curve" smooth="yes"/>
      <point x="1029" y="-180" type="line"/>
      <point x="1029" y="-390" type="line"/>
      <point x="410" y="-390" type="line" smooth="yes"/>
      <point x="230" y="-390"/>
      <point x="90" y="-252"/>
    </contour>
    <contour>
      <point x="573" y="923" type="curve" smooth="yes"/>
      <point x="573" y="989"/>
      <point x="626" y="1042"/>
      <point x="692" y="1042" type="curve" smooth="yes"/>
      <point x="758" y="1042"/>
      <point x="811" y="989"/>
      <point x="811" y="923" type="curve" smooth="yes"/>
      <point x="811" y="857"/>
      <point x="758" y="804"/>
      <point x="692" y="804" type="curve" smooth="yes"/>
      <point x="626" y="804"/>
      <point x="573" y="857"/>
    </contour>
  </outline>
</glyph>
<glyph name="AE" format="2">
  <advance width="2044"/>
  <unicode hex="00C6"/>
  <anchor x="1022" y="1544" name="top"/>
  <outline>
    <contour>
      <point x="40" y="0" type="line"/>
      <point x="533" y="1422" type="line"/>
      <point x="1924" y="1422" type="line"/>
      <point x="1924" y="1212" type="line"/>
      <point x="1029" y="1212" type="line"/>
      <point x="1029" y="211" type="line"/>
      <point x="1924" y="211" type="line"/>
      <point x="1924" y="0" type="line"/>
      <point x="819" y="0" type="line"/>
      <point x="819" y="428" type="line"/>
      <point x="533" y="428" type="line"/>
      <point x="606" y="638" type="line"/>
      <point x="819" y="638" type="line"/>
      <point x="819" y="1212" type="line"/>
      <point x="685" y="1212" type="line"/>
      <point x="264" y="0" type="line"/>
    </contour>
    <contour>
      <point x="1151" y="635" type="line"/>
      <point x="1151" y="845" type="line"/>
      <point x="1923" y="845" type="line"/>
      <point x="1923" y="635" type="line"/>
    </contour>
  </outline>
</glyph>
<glyph name="multiply" format="2">
  <advance width="1034"/>
  <unicode hex="00D7"/>
  <outline>
    <contour>
      <point x="90" y="251" type="line"/>
      <point x="378" y="539" type="line"/>
      <point x="90" y="826" type="line"/>
      <point x="228" y="968" type="line"/>
      <point x="517" y="677" type="line"/>
      <point x="807" y="968" type="line"/>
      <point x="945" y="826" type="line"/>
      <point x="656" y="539" type="line"/>
      <point x="944" y="251" type="line"/>
      <point x="807" y="110" type="line"/>
      <point x="517" y="400" type="line"/>
      <point x="228" y="110" type="line"/>
    </contour>
  </outline>
</glyph>
<glyph name="ae" format="2">
  <advance width="1913"/>
  <unicode hex="00E6"/>
  <anchor x="956" y="1158" name="top"/>
  <outline>
    <contour>
      <point x="110" y="374" type="curve" smooth="yes"/>
      <point x="110" y="664" type="line" smooth="yes"/>
      <point x="110" y="869"/>
      <point x="278" y="1036"/>
      <point x="484" y="1036" type="curve" smooth="yes"/>
      <point x="1504" y="1036" type="line" smooth="yes"/>
      <point x="1669" y="1036"/>
      <point x="1803" y="901"/>
      <point x="1803" y="735" type="curve" smooth="yes"/>
      <point x="1803" y="706" type="line" smooth="yes"/>
      <point x="1803" y="542"/>
      <point x="1669" y="408"/>
      <point x="1504" y="408" type="curve" smooth="yes"/>
      <point x="1182" y="408" type="line"/>
      <point x="1182" y="618" type="line"/>
      <point x="1506" y="618" type="line" smooth="yes"/>
      <point x="1554" y="618"/>
      <point x="1593" y="658"/>
      <point x="1593" y="707" type="curve" smooth="yes"/>
      <point x="1593" y="735" type="line" smooth="yes"/>
      <point x="1593" y="785"/>
      <point x="1554" y="825"/>
      <point x="1506" y="825" type="curve" smooth="yes"/>
      <point x="1062" y="825" type="line"/>
      <point x="1062" y="293" type="line" smooth="yes"/>
      <point x="1062" y="248"/>
      <point x="1097" y="211"/>
      <point x="1141" y="211" type="curve" smooth="yes"/>
      <point x="1730" y="211" type="line"/>
      <point x="1730" y="0" type="line"/>
      <point x="1141" y="0" type="line" smooth="yes"/>
      <point x="1116" y="0"/>
      <point x="1091" y="4"/>
      <point x="1062" y="11" type="curve"/>
      <point x="1062" y="0" type="line"/>
      <point x="851" y="0" type="line"/>
      <point x="851" y="825" type="line"/>
      <point x="484" y="825" type="line" smooth="yes"/>
      <point x="394" y="825"/>
      <point x="321" y="752"/>
      <point x="321" y="662" type="curve" smooth="yes"/>
      <point x="321" y="376" type="line" smooth="yes"/>
      <point x="321" y="285"/>
      <point x="394" y="211"/>
      <point x="484" y="211" type="curve" smooth="yes"/>
      <point x="731" y="211" type="line"/>
      <point x="731" y="0" type="line"/>
      <point x="484" y="0" type="line" smooth="yes"/>
      <point x="278" y="0"/>
      <point x="110" y="168"/>
    </contour>
  </outline>
</glyph>
<glyph name="divide" format="2">
  <advance width="1237"/>
  <unicode hex="00F7"/>
  <outline>
    <contour>
      <point x="120" y="464" type="line"/>
      <point x="120" y="642" type="line"/>
      <point x="1117" y="642" type="line"/>
      <point x="1117" y="464" type="line"/>
    </contour>
    <contour>
      <point x="508" y="254" type="curve" smooth="yes"/>
      <point x="508" y="315"/>
      <point x="557" y="364"/>
      <point x="618" y="364" type="curve" smooth="yes"/>
      <point x="680" y="364"/>
      <point x="729" y="315"/>
      <point x="729" y="254" type="curve" smooth="yes"/>
      <point x="729" y="193"/>
      <point x="680" y="144"/>
      <point x="618" y="144" type="curve" smooth="yes"/>
      <point x="557" y="144"/>
      <point x="508" y="193"/>
    </contour>
    <contour>
      <point x="508" y="853" type="curve" smooth="yes"/>
      <point x="508" y="914"/>
      <point x="557" y="964"/>
      <point x="618" y="964" type="curve" smooth="yes"/>
      <point x="680" y="964"/>
      <point x="729" y="915"/>
      <point x="729" y="853" type="curve" smooth="yes"/>
      <point x="729" y="791"/>
      <point x="680" y="742"/>
      <point x="618" y="742" type="curve" smooth="yes"/>
      <point x="557" y="742"/>
      <point x="508" y="792"/>
    </contour>
  </outline>
</glyph>
<glyph name="oslash" format="2">
  <advance width="1194"/>
  <unicode hex="00F8"/>
  <anchor x="597" y="1158" name="top"/>
  <outline>
    <contour>
      <point x="110" y="374" type="curve" smooth="yes"/>
      <point x="110" y="662" type="line" smooth="yes"/>
      <point x="110" y="868"/>
      <point x="278" y="1036"/>
      <point x="484" y="1036" type="curve" smooth="yes"/>
      <point x="710" y="1036" type="line" smooth="yes"/>
      <point x="752" y="1036"/>
      <point x="792" y="1030"/>
      <point x="826" y="1018" type="curve"/>
      <point x="917" y="1148" type="line"/>
      <point x="1072" y="1039" type="line"/>
      <point x="985" y="915" type="line"/>
      <point x="1049" y="845"/>
      <point x="1084" y="755"/>
      <point x="1084" y="662" type="curve" smooth="yes"/>
      <point x="1084" y="374" type="line" smooth="yes"/>
      <point x="1084" y="168"/>
      <point x="916" y="0"/>
      <point x="710" y="0" type="curve" smooth="yes"/>
      <point x="484" y="0" type="line" smooth="yes"/>
      <point x="440" y="0"/>
      <point x="398" y="7"/>
      <point x="359" y="21" type="curve"/>
      <point x="266" y="-111" type="line"/>
      <point x="111" y="-3" type="line"/>
      <point x="203" y="128" type="line"/>
      <point x="143" y="197"/>
      <point x="110" y="284"/>
    </contour>
    <contour>
      <point x="321" y="376" type="line" smooth="yes"/>
      <point x="321" y="354"/>
      <point x="325" y="333"/>
      <point x="333" y="314" type="curve"/>
      <point x="691" y="825" type="line"/>
      <point x="484" y="825" type="line" smooth="yes"/>
      <point x="394" y="825"/>
      <point x="321" y="751"/>
      <point x="321" y="660" type="curve" smooth="yes"/>
    </contour>
    <contour>
      <point x="492" y="211" type="line"/>
      <point x="710" y="211" type="line" smooth="yes"/>
      <point x="800" y="211"/>
      <point x="873" y="285"/>
      <point x="873" y="376" type="curve" smooth="yes"/>
      <point x="873" y="660" type="line" smooth="yes"/>
      <point x="873" y="686"/>
      <point x="868" y="710"/>
      <point x="857" y="732" type="curve"/>
    </contour>
  </outline>
</glyph>
<glyph name="thorn" format="2">
  <advance width="1224"/>
  <unicode hex="00FE"/>
  <outline>
    <contour>
      <point x="140" y="-390" type="line"/>
      <point x="140" y="1422" type="line"/>
      <point x="351" y="1422" type="line"/>
      <point x="351" y="999" type="line"/>
      <point x="400" y="1024"/>
      <point x="455" y="1036"/>
      <point x="514" y="1036" type="curve" smooth="yes"/>
      <point x="740" y="1036" type="line" smooth="yes"/>
      <point x="946" y="1036"/>
      <point x="1114" y="868"/>
      <point x="1114" y="662" type="curve" smooth="yes"/>
      <point x="1114" y="374" type="line" smooth="yes"/>
      <point x="1114" y="168"/>
      <point x="946" y="0"/>
      <point x="740" y="0" type="curve" smooth="yes"/>
      <point x="514" y="0" type="line" smooth="yes"/>
      <point x="455" y="0"/>
      <point x="400" y="12"/>
      <point x="351" y="37" type="curve"/>
      <point x="351" y="-390" type="line"/>
    </contour>
    <contour>
      <point x="351" y="376" type="line" smooth="yes"/>
      <point x="351" y="285"/>
      <point x="424" y="211"/>
      <point x="514" y="211" type="curve" smooth="yes"/>
      <point x="740" y="211" type="line" smooth="yes"/>
      <point x="830" y="211"/>
      <point x="903" y="285"/>
      <point x="903" y="376" type="curve" smooth="yes"/>
      <point x="903" y="660" type="line" smooth="yes"/>
      <point x="903" y="751"/>
      <point x="830" y="825"/>
      <point x="740" y="825" type="curve" smooth="yes"/>
      <point x="514" y="825" type="line" smooth="yes"/>
      <point x="424" y="825"/>
      <point x="351" y="751"/>
      <point x="351" y="660" type="curve" smooth="yes"/>
    </contour>
  </outline>
</glyph>
<glyph name="Hbar" format="2">
  <advance width="1598"/>
  <unicode hex="0126"/>
  <outline>
    <contour>
      <point x="60" y="1156" type="line"/>
      <point x="60" y="1303" type="line"/>
      <point x="220" y="1303" type="line"/>
      <point x="220" y="1422" type="line"/>
      <point x="431" y="1422" type="line"/>
      <point x="431" y="1303" type="line"/>
      <point x="1168" y="1303" type="line"/>
      <point x="1168" y="1422" type="line"/>
      <point x="1378" y="1422" type="line"/>
      <point x="1378" y="1303" type="line"/>
      <point x="1538" y="1303" type="line"/>
      <point x="1538" y="1156" type="line"/>
      <point x="1378" y="1156" type="line"/>
      <point x="1378" y="0" type="line"/>
      <point x="1168" y="0" type="line"/>
      <point x="1168" y="635" type="line"/>
      <point x="431" y="635" type="line"/>
      <point x="431" y="0" type="line"/>
      <point x="220" y="0" type="line"/>
      <point x="220" y="1156" type="line"/>
    </contour>
    <contour>
      <point x="431" y="845" type="line"/>
      <point x="1168" y="845" type="line"/>
      <point x="1168" y="1156" type="line"/>
      <point x="431" y="1156" type="line"/>
    </contour>
  </outline>
</glyph>
<glyph name="Lslash" format="2">
  <advance width="1413"/>
  <unicode hex="0141"/>
  <outline>
    <contour>
      <point x="60" y="626" type="line"/>
      <point x="251" y="736" type="line"/>
      <point x="251" y="1422" type="line"/>
      <point x="461" y="1422" type="line"/>
      <point x="461" y="857" type="line"/>
      <point x="577" y="924" type="line"/>
      <point x="651" y="797" type="line"/>
      <point x="461" y="687" type="line"/>
      <point x="461" y="398" type="line" smooth="yes"/>
      <point x="461" y="294"/>
      <point x="545" y="210"/>
      <point x="648" y="210" type="curve" smooth="yes"/>
      <point x="1353" y="210" type="line"/>
      <point x="1353" y="0" type="line"/>
      <point x="648" y="0" type="line" smooth="yes"/>
      <point x="429" y="0"/>
      <point x="251" y="178"/>
      <point x="251" y="398" type="curve" smooth="yes"/>
      <point x="251" y="566" type="line"/>
      <point x="134" y="499" type="line"/>
    </contour>
  </outline>
</glyph>
<glyph name="lslash" format="2">
  <advance width="671"/>
  <unicode hex="0142"/>
  <outline>
    <contour>
      <point x="40" y="626" type="line"/>
      <point x="230" y="735" type="line"/>
      <point x="230" y="1422" type="line"/>
      <point x="441" y="1422" type="line"/>
      <point x="441" y="857" type="line"/>
      <point x="557" y="924" type="line"/>
      <point x="631" y="797" type="line"/>
      <point x="441" y="687" type="line"/>
      <point x="441" y="0" type="line"/>
      <point x="230" y="0" type="line"/>
      <point x="230" y="565" type="line"/>
      <point x="114" y="499" type="line"/>
    </contour>
  </outline>
</glyph>
<glyph name="napostrophe" format="2">
  <advance width="1342"/>
  <unicode hex="0149"/>
  <outline>
    <contour>
      <point x="270" y="0" type="line"/>
      <point x="270" y="826" type="line" smooth="yes"/>
      <point x="270" y="942"/>
      <point x="365" y="1036"/>
      <point x="483" y="1036" type="curve" smooth="yes"/>
      <point x="848" y="1036" type="line" smooth="yes"/>
      <point x="1054" y="1036"/>
      <point x="1222" y="868"/>
      <point x="1222" y="662" type="curve" smooth="yes"/>
      <point x="1222" y="0" type="line"/>
      <point x="1011" y="0" type="line"/>
      <point x="1011" y="659" type="line" smooth="yes"/>
      <point x="1011" y="752"/>
      <point x="938" y="827"/>
      <point x="848" y="827" type="curve" smooth="yes"/>
      <point x="481" y="827" type="line"/>
      <point x="481" y="0" type="line"/>
    </contour>
    <contour>
      <point x="40" y="1211" type="line"/>
      <point x="169" y="1580" type="line"/>
      <point x="352" y="1492" type="line"/>
      <point x="154" y="1158" type="line"/>
    </contour>
  </outline>
</glyph>
<glyph name="Eng" format="2">
  <advance width="1384"/>
  <unicode hex="014A"/>
  <outline>
    <contour>
      <point x="140" y="0" type="line"/>
      <point x="140" y="1422" type="line"/>
      <point x="414" y="1422" type="line"/>
      <point x="1033" y="305" type="line"/>
      <point x="1033" y="1422" type="line"/>
      <point x="1244" y="1422" type="line"/>
      <point x="1244" y="-60" type="line" smooth="yes"/>
      <point x="1244" y="-313"/>
      <point x="1157" y="-391"/>
      <point x="874" y="-391" type="curve"/>
      <point x="874" y="-180" type="line"/>
      <point x="1021" y="-180"/>
      <point x="1033" y="-171"/>
      <point x="1033" y="-60" type="curve" smooth="yes"/>
      <point x="1033" y="0" type="line"/>
      <point x="970" y="0" type="line"/>
      <point x="351" y="1102" type="line"/>
      <point x="351" y="0" type="line"/>
    </contour>
  </outline>
</glyph>
<glyph name="oe" format="2">
  <advance width="1937"/>
  <unicode hex="0153"/>
  <anchor x="968" y="1158" name="top"/>
  <outline>
    <contour>
      <point x="110" y="374" type="curve" smooth="yes"/>
      <point x="110" y="664" type="line" smooth="yes"/>
      <point x="110" y="869"/>
      <point x="291" y="1036"/>
      <point x="514" y="1036" type="curve" smooth="yes"/>
      <point x="681" y="1036" type="line" smooth="yes"/>
      <point x="770" y="1036"/>
      <point x="855" y="1009"/>
      <point x="926" y="959" type="curve"/>
      <point x="968" y="1008"/>
      <point x="1030" y="1036"/>
      <point x="1096" y="1036" type="curve" smooth="yes"/>
      <point x="1528" y="1036" type="line" smooth="yes"/>
      <point x="1693" y="1036"/>
      <point x="1827" y="901"/>
      <point x="1827" y="735" type="curve" smooth="yes"/>
      <point x="1827" y="706" type="line" smooth="yes"/>
      <point x="1827" y="542"/>
      <point x="1693" y="408"/>
      <point x="1528" y="408" type="curve" smooth="yes"/>
      <point x="1206" y="408" type="line"/>
      <point x="1206" y="618" type="line"/>
      <point x="1530" y="618" type="line" smooth="yes"/>
      <point x="1578" y="618"/>
      <point x="1617" y="658"/>
      <point x="1617" y="707" type="curve" smooth="yes"/>
      <point x="1617" y="735" type="line" smooth="yes"/>
      <point x="1617" y="785"/>
      <point x="1578" y="825"/>
      <point x="1530" y="825" type="curve" smooth="yes"/>
      <point x="1086" y="825" type="line"/>
      <point x="1086" y="293" type="line" smooth="yes"/>
      <point x="1086" y="248"/>
      <point x="1121" y="211"/>
      <point x="1165" y="211" type="curve" smooth="yes"/>
      <point x="1754" y="211" type="line"/>
      <point x="1754" y="0" type="line"/>
      <point x="1165" y="0" type="line" smooth="yes"/>
      <point x="1083" y="0"/>
      <point x="1005" y="35"/>
      <point x="950" y="96" type="curve"/>
      <point x="876" y="34"/>
      <point x="781" y="0"/>
      <point x="681" y="0" type="curve" smooth="yes"/>
      <point x="514" y="0" type="line" smooth="yes"/>
      <point x="291" y="0"/>
      <point x="110" y="168"/>
    </contour>
    <contour>
      <point x="321" y="373" type="line" smooth="yes"/>
      <point x="321" y="284"/>
      <point x="408" y="211"/>
      <point x="516" y="211" type="curve" smooth="yes"/>
      <point x="681" y="211" type="line" smooth="yes"/>
      <point x="788" y="211"/>
      <point x="875" y="283"/>
      <point x="875" y="372" type="curve" smooth="yes"/>
      <point x="875" y="662" type="line" smooth="yes"/>
      <point x="875" y="753"/>
      <point x="787" y="826"/>
      <point x="679" y="826" type="curve" smooth="yes"/>
      <point x="514" y="826" type="line" smooth="yes"/>
      <point x="407" y="826"/>
      <point x="321" y="753"/>
      <point x="321" y="663" type="curve" smooth="yes"/>
    </contour>
  </outline>
</glyph>
<glyph name="Tbar" format="2">
  <advance width="1238"/>
  <unicode hex="0166"/>
  <outline>
    <contour>
      <point x="40" y="1212" type="line"/>
      <point x="40" y="1422" type="line"/>
      <point x="1198" y="1422" type="line"/>
      <point x="1198" y="1212" type="line"/>
      <point x="731" y="1212" type="line"/>
      <point x="731" y="846" type="line"/>
      <point x="956" y="846" type="line"/>
      <point x="956" y="634" type="line"/>
      <point x="731" y="634" type="line"/>
      <point x="731" y="0" type="line"/>
      <point x="518" y="0" type="line"/>
      <point x="518" y="634" type="line"/>
      <point x="291" y="634" type="line"/>
      <point x="291" y="846" type="line"/>
      <point x="518" y="846" type="line"/>
      <point x="518" y="1212" type="line"/>
    </contour>
  </outline>
</glyph>
<glyph name="uni0237" format="2">
  <advance width="530"/>
  <unicode hex="0237"/>
  <anchor x="304" y="1158" name="top"/>
  <outline>
    <contour>
      <point x="40" y="-180" type="line"/>
      <point x="187.038" y="-180"/>
      <point x="199" y="-170.972"/>
      <point x="199" y="-60" type="curve" smooth="yes"/>
      <point x="199" y="1036" type="line"/>
      <point x="410" y="1036" type="line"/>
      <point x="410" y="-60" type="line" smooth="yes"/>
      <point x="410" y="-313.085"/>
      <point x="322.905" y="-391"/>
      <point x="40" y="-391" type="curve"/>
    </contour>
  </outline>
</glyph>
<glyph name="breve" format="2">
  <advance width="796"/>
  <unicode hex="02D8"/>
  <anchor x="398" y="1122" name="_top"/>
  <outline>
    <contour>
      <point x="100" y="1420" type="curve"/>
      <point x="234" y="1420" type="line"/>
      <point x="234" y="1330"/>
      <point x="308" y="1256"/>
      <point x="398" y="1256" type="curve" smooth="yes"/>
      <point x="488" y="1256"/>
      <point x="562" y="1330"/>
      <point x="562" y="1420" type="curve"/>
      <point x="696" y="1420" type="line"/>
      <point x="696" y="1256"/>
      <point x="562" y="1122"/>
      <point x="398" y="1122" type="curve" smooth="yes"/>
      <point x="234" y="1122"/>
      <point x="100" y="1256"/>
    </contour>
  </outline>
</glyph>
<glyph name="dotaccent" format="2">
  <advance width="411"/>
  <unicode hex="02D9"/>
  <anchor x="206" y="1212" name="_top"/>
  <outline>
    <contour>
      <point x="95" y="1322" type="curve" smooth="yes"/>
      <point x="95" y="1384"/>
      <point x="144" y="1433"/>
      <point x="206" y="1433" type="curve" smooth="yes"/>
      <point x="267" y="1433"/>
      <point x="316" y="1384"/>
      <point x="316" y="1322" type="curve" smooth="yes"/>
      <point x="316" y="1261"/>
      <point x="267" y="1212"/>
      <point x="206" y="1212" type="curve" smooth="yes"/>
      <point x="145" y="1212"/>
      <point x="95" y="1261"/>
    </contour>
  </outline>
</glyph>
<glyph name="tilde" format="2">
  <advance width="898"/>
  <unicode hex="02DC"/>
  <anchor x="450" y="1198" name="_top"/>
  <outline>
    <contour>
      <point x="120" y="1206" type="line"/>
      <point x="121" y="1334"/>
      <point x="202" y="1427"/>
      <point x="314" y="1427" type="curve" smooth="yes"/>
      <point x="345" y="1427"/>
      <point x="377" y="1418"/>
      <point x="445" y="1390" type="curve" smooth="yes"/>
      <point x="518" y="1360"/>
      <point x="545" y="1352"/>
      <point x="576" y="1352" type="curve" smooth="yes"/>
      <point x="607" y="1352"/>
      <point x="621" y="1374"/>
      <point x="621" y="1422" type="curve"/>
      <point x="778" y="1422" type="line"/>
      <point x="778" y="1298"/>
      <point x="693" y="1198"/>
      <point x="586" y="1198" type="curve" smooth="yes"/>
      <point x="555" y="1198"/>
      <point x="523" y="1208"/>
      <point x="453" y="1238" type="curve" smooth="yes"/>
      <point x="378" y="1270"/>
      <point x="351" y="1279"/>
      <point x="320" y="1279" type="curve" smooth="yes"/>
      <point x="289" y="1279"/>
      <point x="275" y="1256"/>
      <point x="275" y="1206" type="curve"/>
    </contour>
  </outline>
</glyph>
<glyph name="hungarumlaut" format="2">
  <advance width="814"/>
  <unicode hex="02DD"/>
  <anchor x="321" y="1151" name="_top"/>
  <outline>
    <contour>
      <point x="100" y="1151" type="line"/>
      <point x="240" y="1422" type="line"/>
      <point x="417" y="1422" type="line"/>
      <point x="246" y="1151" type="line"/>
    </contour>
    <contour>
      <point x="397" y="1151" type="line"/>
      <point x="537" y="1422" type="line"/>
      <point x="714" y="1422" type="line"/>
      <point x="543" y="1151" type="line"/>
    </contour>
  </outline>
</glyph>
<glyph name="gravecomb" format="2">
  <advance width="512"/>
  <unicode hex="0300"/>
  <anchor x="298" y="1170" name="_top"/>
  <outline>
    <contour>
      <point x="100" y="1504" type="line"/>
      <point x="283" y="1592" type="line"/>
      <point x="412" y="1223" type="line"/>
      <point x="298" y="1170" type="line"/>
    </contour>
  </outline>
</glyph>
<glyph name="macroncomb" format="2">
  <advance width="837"/>
  <unicode hex="0304"/>
  <anchor x="419" y="1275" name="_top"/>
  <outline>
    <contour>
      <point x="120" y="1275" type="line"/>
      <point x="120" y="1422" type="line"/>
      <point x="717" y="1422" type="line"/>
      <point x="717" y="1275" type="line"/>
    </contour>
  </outline>
</glyph>
<glyph name="uni030B" format="2">
  <advance width="892"/>
  <unicode hex="030B"/>
  <anchor x="446" y="1170" name="top"/>
  <outline>
    <contour>
      <point x="100" y="1223" type="line"/>
      <point x="229" y="1592" type="line"/>
      <point x="412" y="1504" type="line"/>
      <point x="214" y="1170" type="line"/>
    </contour>
    <contour>
      <point x="480" y="1223" type="line"/>
      <point x="609" y="1592" type="line"/>
      <point x="792" y="1504" type="line"/>
      <point x="594" y="1170" type="line"/>
    </contour>
  </outline>
</glyph>
<glyph name="caroncomb" format="2">
  <advance width="823"/>
  <unicode hex="030C"/>
  <anchor x="412" y="1113" name="_top"/>
  <outline>
    <contour>
      <point x="100" y="1422" type="line"/>
      <point x="241" y="1422" type="line"/>
      <point x="411" y="1250" type="line"/>
      <point x="582" y="1422" type="line"/>
      <point x="723" y="1422" type="line"/>
      <point x="489" y="1113" type="line"/>
      <point x="334" y="1113" type="line"/>
    </contour>
  </outline>
</glyph>
<glyph name="endash" format="2">
  <advance width="1024"/>
  <unicode hex="2013"/>
  <outline>
    <contour>
      <point x="110" y="466" type="line"/>
      <point x="110" y="642" type="line"/>
      <point x="914" y="642" type="line"/>
      <point x="914" y="466" type="line"/>
    </contour>
  </outline>
</glyph>
<glyph name="emdash" format="2">
  <advance width="2048"/>
  <unicode hex="2014"/>
  <outline>
    <contour>
      <point x="110" y="466" type="line"/>
      <point x="110" y="642" type="line"/>
      <point x="1938" y="642" type="line"/>
      <point x="1938" y="466" type="line"/>
    </contour>
  </outline>
</glyph>
<glyph name="quoteleft" format="2">
  <advance width="512"/>
  <unicode hex="2018"/>
  <outline>
    <contour>
      <point x="100" y="1258" type="line"/>
      <point x="298" y="1592" type="line"/>
      <point x="412" y="1539" type="line"/>
      <point x="283" y="1170" type="line"/>
    </contour>
  </outline>
</glyph>
<glyph name="quotesinglbase" format="2">
  <advance width="487"/>
  <unicode hex="201A"/>
  <anchor x="279" y="212" name="botton"/>
  <outline>
    <contour>
      <point x="100" y="-202" type="line"/>
      <point x="175" y="212" type="line"/>
      <point x="387" y="212" type="line"/>
      <point x="258" y="-202" type="line"/>
    </contour>
  </outline>
</glyph>
<glyph name="quotedblbase" format="2">
  <advance width="837"/>
  <unicode hex="201E"/>
  <outline>
    <contour>
      <point x="100" y="-202" type="line"/>
      <point x="175" y="212" type="line"/>
      <point x="387" y="212" type="line"/>
      <point x="258" y="-202" type="line"/>
    </contour>
    <contour>
      <point x="450" y="-202" type="line"/>
      <point x="525" y="212" type="line"/>
      <point x="737" y="212" type="line"/>
      <point x="608" y="-202" type="line"/>
    </contour>
  </outline>
</glyph>
<glyph name="daggerdbl" format="2">
  <advance width="1219"/>
  <unicode hex="2021"/>
  <outline>
    <contour>
      <point x="100" y="404" type="line"/>
      <point x="100" y="614" type="line"/>
      <point x="505" y="614" type="line"/>
      <point x="505" y="817" type="line"/>
      <point x="100" y="817" type="line"/>
      <point x="100" y="1028" type="line"/>
      <point x="505" y="1028" type="line"/>
      <point x="505" y="1422" type="line"/>
      <point x="715" y="1422" type="line"/>
      <point x="715" y="1028" type="line"/>
      <point x="1119" y="1028" type="line"/>
      <point x="1119" y="817" type="line"/>
      <point x="715" y="817" type="line"/>
      <point x="715" y="614" type="line"/>
      <point x="1119" y="614" type="line"/>
      <point x="1119" y="404" type="line"/>
      <point x="715" y="404" type="line"/>
      <point x="715" y="0" type="line"/>
      <point x="505" y="0" type="line"/>
      <point x="505" y="404" type="line"/>
    </contour>
  </outline>
</glyph>
<glyph name="ellipsis" format="2">
  <advance width="1272"/>
  <unicode hex="2026"/>
  <outline>
    <contour>
      <point x="120" y="120" type="curve" smooth="yes"/>
      <point x="120" y="192"/>
      <point x="178" y="250"/>
      <point x="250" y="250" type="curve" smooth="yes"/>
      <point x="323" y="250"/>
      <point x="380" y="193"/>
      <point x="380" y="120" type="curve" smooth="yes"/>
      <point x="380" y="47"/>
      <point x="323" y="-10"/>
      <point x="250" y="-10" type="curve" smooth="yes"/>
      <point x="178" y="-10"/>
      <point x="120" y="48"/>
    </contour>
    <contour>
      <point x="506" y="120" type="curve" smooth="yes"/>
      <point x="506" y="192"/>
      <point x="564" y="250"/>
      <point x="636" y="250" type="curve" smooth="yes"/>
      <point x="709" y="250"/>
      <point x="766" y="193"/>
      <point x="766" y="120" type="curve" smooth="yes"/>
      <point x="766" y="47"/>
      <point x="709" y="-10"/>
      <point x="636" y="-10" type="curve" smooth="yes"/>
      <point x="564" y="-10"/>
      <point x="506" y="48"/>
    </contour>
    <contour>
      <point x="892" y="120" type="curve" smooth="yes"/>
      <point x="892" y="192"/>
      <point x="950" y="250"/>
      <point x="1022" y="250" type="curve" smooth="yes"/>
      <point x="1095" y="250"/>
      <point x="1152" y="193"/>
      <point x="1152" y="120" type="curve" smooth="yes"/>
      <point x="1152" y="47"/>
      <point x="1095" y="-10"/>
      <point x="1022" y="-10" type="curve" smooth="yes"/>
      <point x="950" y="-10"/>
      <point x="892" y="48"/>
    </contour>
  </outline>
</glyph>
<glyph name="trademark" format="2">
  <advance width="1433"/>
  <unicode hex="2122"/>
  <outline>
    <contour>
      <point x="120" y="1296" type="line"/>
      <point x="120" y="1422" type="line"/>
      <point x="647" y="1422" type="line"/>
      <point x="647" y="1296" type="line"/>
      <point x="449" y="1296" type="line"/>
      <point x="449" y="783" type="line"/>
      <point x="322" y="783" type="line"/>
      <point x="322" y="1296" type="line"/>
    </contour>
    <contour>
      <point x="722" y="783" type="line"/>
      <point x="722" y="1422" type="line"/>
      <point x="831" y="1422" type="line"/>
      <point x="1017" y="1198" type="line"/>
      <point x="1204" y="1422" type="line"/>
      <point x="1313" y="1422" type="line"/>
      <point x="1313" y="783" type="line"/>
      <point x="1186" y="783" type="line"/>
      <point x="1186" y="1199" type="line"/>
      <point x="1063" y="1054" type="line"/>
      <point x="973" y="1054" type="line"/>
      <point x="849" y="1199" type="line"/>
      <point x="849" y="783" type="line"/>
    </contour>
  </outline>
</glyph>
<glyph name="partialdiff" format="2">
  <advance width="1182"/>
  <unicode hex="2202"/>
  <outline>
    <contour>
      <point x="110" y="372" type="curve" smooth="yes"/>
      <point x="110" y="662" type="line" smooth="yes"/>
      <point x="110" y="868"/>
      <point x="278" y="1036"/>
      <point x="484" y="1036" type="curve" smooth="yes"/>
      <point x="731" y="1036" type="line"/>
      <point x="731" y="825" type="line"/>
      <point x="484" y="825" type="line" smooth="yes"/>
      <point x="394" y="825"/>
      <point x="321" y="751"/>
      <point x="321" y="660" type="curve" smooth="yes"/>
      <point x="321" y="374" type="line" smooth="yes"/>
      <point x="321" y="284"/>
      <point x="394" y="211"/>
      <point x="484" y="211" type="curve" smooth="yes"/>
      <point x="851" y="211" type="line"/>
      <point x="851" y="1050" type="line" smooth="yes"/>
      <point x="851" y="1142"/>
      <point x="779" y="1217"/>
      <point x="690" y="1217" type="curve" smooth="yes"/>
      <point x="321" y="1217" type="line"/>
      <point x="321" y="1423" type="line"/>
      <point x="688" y="1423" type="line" smooth="yes"/>
      <point x="894" y="1423"/>
      <point x="1062" y="1255"/>
      <point x="1062" y="1049" type="curve" smooth="yes"/>
      <point x="1062" y="211" type="line" smooth="yes"/>
      <point x="1062" y="95"/>
      <point x="967" y="0"/>
      <point x="851" y="0" type="curve" smooth="yes"/>
      <point x="484" y="0" type="line" smooth="yes"/>
      <point x="278" y="0"/>
      <point x="110" y="167"/>
    </contour>
  </outline>
</glyph>
<glyph name="fi" format="2">
  <advance width="1175"/>
  <unicode hex="FB01"/>
  <outline>
    <contour>
      <point x="120" y="0" type="line"/>
      <point x="120" y="1125" type="line" smooth="yes"/>
      <point x="120" y="1289"/>
      <point x="254" y="1422"/>
      <point x="418" y="1422" type="curve" smooth="yes"/>
      <point x="649" y="1422" type="line"/>
      <point x="649" y="1212" type="line"/>
      <point x="418" y="1212" type="line" smooth="yes"/>
      <point x="370" y="1212"/>
      <point x="331" y="1173"/>
      <point x="331" y="1125" type="curve" smooth="yes"/>
      <point x="331" y="1036" type="line"/>
      <point x="1051" y="1036" type="line"/>
      <point x="1051" y="0" type="line"/>
      <point x="839" y="0" type="line"/>
      <point x="839" y="826" type="line"/>
      <point x="331" y="826" type="line"/>
      <point x="331" y="0" type="line"/>
    </contour>
    <contour>
      <point x="815" y="1318" type="curve" smooth="yes"/>
      <point x="815" y="1390"/>
      <point x="873" y="1448"/>
      <point x="945" y="1448" type="curve" smooth="yes"/>
      <point x="1017" y="1448"/>
      <point x="1075" y="1390"/>
      <point x="1075" y="1318" type="curve" smooth="yes"/>
      <point x="1075" y="1246"/>
      <point x="1017" y="1188"/>
      <point x="945" y="1188" type="curve" smooth="yes"/>
      <point x="873" y="1188"/>
      <point x="815" y="1246"/>
    </contour>
  </outline>
</glyph>
<glyph name="fl" format="2">
  <advance width="1170"/>
  <unicode hex="FB02"/>
  <outline>
    <contour>
      <point x="120" y="0" type="line"/>
      <point x="120" y="1125" type="line" smooth="yes"/>
      <point x="120" y="1289"/>
      <point x="254" y="1422"/>
      <point x="418" y="1422" type="curve" smooth="yes"/>
      <point x="1050" y="1422" type="line"/>
      <point x="1050" y="0" type="line"/>
      <point x="839" y="0" type="line"/>
      <point x="839" y="1212" type="line"/>
      <point x="418" y="1212" type="line" smooth="yes"/>
      <point x="370" y="1212"/>
      <point x="331" y="1173"/>
      <point x="331" y="1125" type="curve" smooth="yes"/>
      <point x="331" y="1036" type="line"/>
      <point x="653" y="1036" type="line"/>
      <point x="653" y="826" type="line"/>
      <point x="331" y="826" type="line"/>
      <point x="331" y="0" type="line"/>
    </contour>
  </outline>
</glyph>
<glyph name="periodcentered.loclCAT.case" format="2">
  <advance width="461"/>
  <outline>
    <contour>
      <point x="120" y="886" type="curve" smooth="yes"/>
      <point x="120" y="947"/>
      <point x="169" y="996"/>
      <point x="230" y="996" type="curve" smooth="yes"/>
      <point x="292" y="996"/>
      <point x="341" y="947"/>
      <point x="341" y="886" type="curve" smooth="yes"/>
      <point x="341" y="824"/>
      <point x="292" y="775"/>
      <point x="230" y="775" type="curve" smooth="yes"/>
      <point x="169" y="775"/>
      <point x="120" y="825"/>
    </contour>
  </outline>
</glyph>
